<?xml version="1.0" encoding="UTF-8" standalone="no"?>
<!DOCTYPE svg PUBLIC "-//W3C//DTD SVG 1.1//EN"
 "http://www.w3.org/Graphics/SVG/1.1/DTD/svg11.dtd">
<!-- Generated by graphviz version 2.38.0 (20140413.2041)
 -->
<!-- Title: G Pages: 1 -->
<svg width="323pt" height="260pt"
 viewBox="0.00 0.00 323.19 260.00" xmlns="http://www.w3.org/2000/svg" xmlns:xlink="http://www.w3.org/1999/xlink">
<g id="graph0" class="graph" transform="scale(1 1) rotate(0) translate(4 256)">
<title>G</title>
<polygon fill="white" stroke="none" points="-4,4 -4,-256 319.191,-256 319.191,4 -4,4"/>
<!-- mainメインプ -->
<g id="node1" class="node"><title>mainメインプ</title>
<ellipse fill="none" stroke="black" cx="165.145" cy="-234" rx="63.0888" ry="18"/>
<text text-anchor="middle" x="165.145" y="-230.3" font-family="Migu 1M" font-size="14.00">mainメインプ</text>
</g>
<!-- parse -->
<g id="node2" class="node"><title>parse</title>
<ellipse fill="none" stroke="black" cx="119.145" cy="-162" rx="32.4942" ry="18"/>
<text text-anchor="middle" x="119.145" y="-158.3" font-family="Migu 1M" font-size="14.00">parse</text>
</g>
<!-- mainメインプ&#45;&gt;parse -->
<g id="edge1" class="edge"><title>mainメインプ&#45;&gt;parse</title>
<path fill="none" stroke="black" d="M154.009,-216.055C148.448,-207.592 141.612,-197.19 135.471,-187.845"/>
<polygon fill="black" stroke="black" points="138.278,-185.742 129.861,-179.307 132.428,-189.586 138.278,-185.742"/>
</g>
<!-- init -->
<g id="node4" class="node"><title>init</title>
<ellipse fill="none" stroke="black" cx="59.1448" cy="-90" rx="28.6953" ry="18"/>
<text text-anchor="middle" x="59.1448" y="-86.3" font-family="Migu 1M" font-size="14.00">init</text>
</g>
<!-- mainメインプ&#45;&gt;init -->
<g id="edge3" class="edge"><title>mainメインプ&#45;&gt;init</title>
<path fill="none" stroke="black" d="M128.85,-219.104C110.973,-210.461 90.6288,-197.599 78.1448,-180 65.4005,-162.034 60.902,-137.241 59.4479,-118.385"/>
<polygon fill="black" stroke="black" points="62.9395,-118.133 58.912,-108.334 55.9495,-118.506 62.9395,-118.133"/>
</g>
<!-- cleanup -->
<g id="node5" class="node"><title>cleanup</title>
<ellipse fill="none" stroke="black" cx="211.145" cy="-162" rx="41.6928" ry="18"/>
<text text-anchor="middle" x="211.145" y="-158.3" font-family="Migu 1M" font-size="14.00">cleanup</text>
</g>
<!-- mainメインプ&#45;&gt;cleanup -->
<g id="edge4" class="edge"><title>mainメインプ&#45;&gt;cleanup</title>
<path fill="none" stroke="black" d="M176.28,-216.055C181.761,-207.715 188.479,-197.491 194.551,-188.252"/>
<polygon fill="black" stroke="black" points="197.545,-190.068 200.112,-179.789 191.695,-186.224 197.545,-190.068"/>
</g>
<!-- printf -->
<g id="node7" class="node"><title>printf</title>
<ellipse fill="none" stroke="black" cx="278.145" cy="-18" rx="37.0935" ry="18"/>
<text text-anchor="middle" x="278.145" y="-14.3" font-family="Migu 1M" font-size="14.00">printf</text>
</g>
<!-- mainメインプ&#45;&gt;printf -->
<g id="edge8" class="edge"><title>mainメインプ&#45;&gt;printf</title>
<path fill="none" stroke="black" d="M206.924,-220.48C226.954,-212.259 249.325,-199.36 262.145,-180 288.873,-139.636 286.864,-80.6489 282.698,-46.4085"/>
<polygon fill="black" stroke="black" points="286.127,-45.6491 281.303,-36.216 279.191,-46.5983 286.127,-45.6491"/>
</g>
<!-- execute -->
<g id="node3" class="node"><title>execute</title>
<ellipse fill="none" stroke="black" cx="162.145" cy="-90" rx="41.6928" ry="18"/>
<text text-anchor="middle" x="162.145" y="-86.3" font-family="Migu 1M" font-size="14.00">execute</text>
</g>
<!-- parse&#45;&gt;execute -->
<g id="edge2" class="edge"><title>parse&#45;&gt;execute</title>
<path fill="none" stroke="black" d="M129.118,-144.765C134.307,-136.317 140.768,-125.799 146.596,-116.312"/>
<polygon fill="black" stroke="black" points="149.675,-117.986 151.927,-107.633 143.711,-114.322 149.675,-117.986"/>
</g>
<!-- make_string -->
<g id="node6" class="node"><title>make_string</title>
<ellipse fill="none" stroke="black" cx="59.1448" cy="-18" rx="59.2899" ry="18"/>
<text text-anchor="middle" x="59.1448" y="-14.3" font-family="Migu 1M" font-size="14.00">make_string</text>
</g>
<!-- execute&#45;&gt;make_string -->
<g id="edge5" class="edge"><title>execute&#45;&gt;make_string</title>
<path fill="none" stroke="black" d="M140.803,-74.496C126.385,-64.6973 107.098,-51.5893 90.8881,-40.5732"/>
<polygon fill="black" stroke="black" points="92.488,-37.4287 82.2499,-34.7026 88.5534,-43.2183 92.488,-37.4287"/>
</g>
<!-- execute&#45;&gt;printf -->
<g id="edge6" class="edge"><title>execute&#45;&gt;printf</title>
<path fill="none" stroke="black" d="M185.34,-75.0027C203.034,-64.3253 227.586,-49.5096 246.992,-37.7989"/>
<polygon fill="black" stroke="black" points="249.024,-40.6607 255.778,-32.4974 245.407,-34.6674 249.024,-40.6607"/>
</g>
<!-- compare -->
<g id="node8" class="node"><title>compare</title>
<ellipse fill="none" stroke="black" cx="178.145" cy="-18" rx="41.6928" ry="18"/>
<text text-anchor="middle" x="178.145" y="-14.3" font-family="Migu 1M" font-size="14.00">compare</text>
</g>
<!-- execute&#45;&gt;compare -->
<g id="edge9" class="edge"><title>execute&#45;&gt;compare</title>
<path fill="none" stroke="black" d="M166.018,-72.055C167.799,-64.2609 169.957,-54.8219 171.955,-46.0789"/>
<polygon fill="black" stroke="black" points="175.38,-46.8038 174.196,-36.2753 168.556,-45.244 175.38,-46.8038"/>
</g>
<!-- init&#45;&gt;make_string -->
<g id="edge7" class="edge"><title>init&#45;&gt;make_string</title>
<path fill="none" stroke="black" d="M59.1448,-71.6966C59.1448,-63.9827 59.1448,-54.7125 59.1448,-46.1124"/>
<polygon fill="black" stroke="black" points="62.6449,-46.1043 59.1448,-36.1043 55.6449,-46.1044 62.6449,-46.1043"/>
</g>
</g>
</svg>
