<?xml version="1.0" encoding="UTF-8" standalone="no"?><svg xmlns="http://www.w3.org/2000/svg" xmlns:xlink="http://www.w3.org/1999/xlink" contentScriptType="application/ecmascript" contentStyleType="text/css" height="435px" preserveAspectRatio="none" style="width:520px;height:435px;" version="1.1" viewBox="0 0 520 435" width="520px" zoomAndPan="magnify"><defs><filter height="300%" id="fu98gr2" width="300%" x="-1" y="-1"><feGaussianBlur result="blurOut" stdDeviation="2.0"/><feColorMatrix in="blurOut" result="blurOut2" type="matrix" values="0 0 0 0 0 0 0 0 0 0 0 0 0 0 0 0 0 0 .4 0"/><feOffset dx="4.0" dy="4.0" in="blurOut2" result="blurOut3"/><feBlend in="SourceGraphic" in2="blurOut3" mode="normal"/></filter></defs><g><text fill="#000000" font-family="Migu 1M" font-size="14" font-weight="bold" lengthAdjust="spacingAndGlyphs" textLength="154" x="187" y="22.3199">シーケンス図のサンプル</text><rect fill="#FFFFFF" filter="url(#fu98gr2)" height="185.3699" style="stroke: #A80036; stroke-width: 1.0;" width="10" x="115.5" y="145.0799"/><rect fill="#FFFFFF" filter="url(#fu98gr2)" height="33.43" style="stroke: #A80036; stroke-width: 1.0;" width="10" x="241" y="233.5897"/><rect fill="#FFFFFF" filter="url(#fu98gr2)" height="116.29" style="stroke: #A80036; stroke-width: 1.0;" width="10" x="314.5" y="300.4498"/><rect fill="#FEFECE" filter="url(#fu98gr2)" height="45.0799" style="stroke: #A80036; stroke-width: 1.5;" width="63" x="212.5" y="153.5099"/><text fill="#000000" font-family="Migu 1M" font-size="14" font-style="italic" lengthAdjust="spacingAndGlyphs" textLength="49" x="219.5" y="174.5099">«Model»</text><text fill="#000000" font-family="Migu 1M" font-size="14" lengthAdjust="spacingAndGlyphs" text-decoration="underline" textLength="42" x="223" y="190.0498">Loader</text><line style="stroke: #000000; stroke-width: 1.0;" x1="223" x2="265" y1="192.0498" y2="192.0498"/><rect fill="#FFFFFF" filter="url(#fu98gr2)" height="57.86" style="stroke: #000000; stroke-width: 2.0;" width="167" x="279.5" y="345.8798"/><line style="stroke: #A80036; stroke-width: 1.0; stroke-dasharray: 5.0,5.0;" x1="39" x2="39" y1="115.0799" y2="434.7398"/><line style="stroke: #A80036; stroke-width: 1.0; stroke-dasharray: 5.0,5.0;" x1="120" x2="120" y1="115.0799" y2="434.7398"/><line style="stroke: #A80036; stroke-width: 1.0; stroke-dasharray: 5.0,5.0;" x1="245.5" x2="245.5" y1="193.5498" y2="434.7398"/><line style="stroke: #A80036; stroke-width: 1.0; stroke-dasharray: 5.0,5.0;" x1="319.5" x2="319.5" y1="115.0799" y2="434.7398"/><text fill="#000000" font-family="Migu 1M" font-size="14" lengthAdjust="spacingAndGlyphs" textLength="56" x="8" y="111.8599">ユーザー</text><ellipse cx="39" cy="42.5399" fill="#FEFECE" filter="url(#fu98gr2)" rx="8" ry="8" style="stroke: #A80036; stroke-width: 2.0;"/><path d="M39,50.5399 L39,77.5399 M26,58.5399 L52,58.5399 M39,77.5399 L26,92.5399 M39,77.5399 L52,92.5399 " fill="#FEFECE" filter="url(#fu98gr2)" style="stroke: #A80036; stroke-width: 2.0;"/><rect fill="#FEFECE" filter="url(#fu98gr2)" height="45.0799" style="stroke: #A80036; stroke-width: 1.5;" width="77" x="80" y="65"/><text fill="#000000" font-family="Migu 1M" font-size="14" font-style="italic" lengthAdjust="spacingAndGlyphs" textLength="63" x="87" y="86">«Control»</text><text fill="#000000" font-family="Migu 1M" font-size="14" lengthAdjust="spacingAndGlyphs" textLength="42" x="97.5" y="101.5399">制御部</text><rect fill="#98FB98" filter="url(#fu98gr2)" height="45.0799" style="stroke: #A80036; stroke-width: 1.5;" width="56" x="289.5" y="65"/><text fill="#000000" font-family="Migu 1M" font-size="14" font-style="italic" lengthAdjust="spacingAndGlyphs" textLength="42" x="296.5" y="86">«View»</text><text fill="#000000" font-family="Migu 1M" font-size="14" lengthAdjust="spacingAndGlyphs" textLength="28" x="303.5" y="101.5399">画面</text><rect fill="#FFFFFF" filter="url(#fu98gr2)" height="185.3699" style="stroke: #A80036; stroke-width: 1.0;" width="10" x="115.5" y="145.0799"/><rect fill="#FFFFFF" filter="url(#fu98gr2)" height="33.43" style="stroke: #A80036; stroke-width: 1.0;" width="10" x="241" y="233.5897"/><rect fill="#FFFFFF" filter="url(#fu98gr2)" height="116.29" style="stroke: #A80036; stroke-width: 1.0;" width="10" x="314.5" y="300.4498"/><polygon fill="#A80036" points="103.5,141.0799,113.5,145.0799,103.5,149.0799,107.5,145.0799" style="stroke: #A80036; stroke-width: 1.0;"/><line style="stroke: #A80036; stroke-width: 1.0;" x1="39" x2="109.5" y1="145.0799" y2="145.0799"/><text fill="#000000" font-family="Migu 1M" font-size="13" lengthAdjust="spacingAndGlyphs" textLength="26" x="46" y="140.5199">検索</text><polygon fill="#A80036" points="200.5,169.5099,210.5,173.5099,200.5,177.5099,204.5,173.5099" style="stroke: #A80036; stroke-width: 1.0;"/><line style="stroke: #A80036; stroke-width: 1.0;" x1="125.5" x2="206.5" y1="173.5099" y2="173.5099"/><text fill="#000000" font-family="Migu 1M" font-size="13" lengthAdjust="spacingAndGlyphs" textLength="63" x="132.5" y="168.9499">&lt;&lt; new &gt;&gt;</text><rect fill="#FEFECE" filter="url(#fu98gr2)" height="45.0799" style="stroke: #A80036; stroke-width: 1.5;" width="63" x="212.5" y="153.5099"/><text fill="#000000" font-family="Migu 1M" font-size="14" font-style="italic" lengthAdjust="spacingAndGlyphs" textLength="49" x="219.5" y="174.5099">«Model»</text><text fill="#000000" font-family="Migu 1M" font-size="14" lengthAdjust="spacingAndGlyphs" text-decoration="underline" textLength="42" x="223" y="190.0498">Loader</text><line style="stroke: #000000; stroke-width: 1.0;" x1="223" x2="265" y1="192.0498" y2="192.0498"/><polygon fill="#A80036" points="229,229.5897,239,233.5897,229,237.5897,233,233.5897" style="stroke: #A80036; stroke-width: 1.0;"/><line style="stroke: #A80036; stroke-width: 1.0;" x1="125.5" x2="235" y1="233.5897" y2="233.5897"/><text fill="#000000" font-family="Migu 1M" font-size="13" lengthAdjust="spacingAndGlyphs" textLength="65" x="132.5" y="229.0298">データ検索</text><polygon fill="#A80036" points="136.5,263.0198,126.5,267.0198,136.5,271.0198,132.5,267.0198" style="stroke: #A80036; stroke-width: 1.0;"/><line style="stroke: #A80036; stroke-width: 1.0; stroke-dasharray: 2.0,2.0;" x1="130.5" x2="245" y1="267.0198" y2="267.0198"/><text fill="#000000" font-family="Migu 1M" font-size="13" lengthAdjust="spacingAndGlyphs" textLength="52" x="142.5" y="262.4598">検索結果</text><polygon fill="#FBFB77" filter="url(#fu98gr2)" points="256,247.0198,256,271.0198,511,271.0198,511,257.0198,501,247.0198,256,247.0198" style="stroke: #A80036; stroke-width: 1.0;"/><line style="stroke: #A80036; stroke-width: 1.0;" x1="501" x2="501" y1="247.0198" y2="257.0198"/><line style="stroke: #A80036; stroke-width: 1.0;" x1="511" x2="501" y1="257.0198" y2="257.0198"/><text fill="#000000" font-family="Migu 1M" font-size="13" lengthAdjust="spacingAndGlyphs" textLength="234" x="262" y="263.4598">ヒットしたものをリストで返します。プ</text><line style="stroke: #A80036; stroke-width: 2.0;" x1="237" x2="255" y1="258.0198" y2="276.0198"/><line style="stroke: #A80036; stroke-width: 2.0;" x1="237" x2="255" y1="276.0198" y2="258.0198"/><polygon fill="#A80036" points="302.5,296.4498,312.5,300.4498,302.5,304.4498,306.5,300.4498" style="stroke: #A80036; stroke-width: 1.0;"/><line style="stroke: #A80036; stroke-width: 1.0;" x1="125.5" x2="308.5" y1="300.4498" y2="300.4498"/><text fill="#000000" font-family="Migu 1M" font-size="13" lengthAdjust="spacingAndGlyphs" textLength="92" x="132.5" y="295.8898">表示(検索結果)</text><rect fill="none" height="57.86" style="stroke: #000000; stroke-width: 2.0;" width="167" x="279.5" y="345.8798"/><polygon fill="#EEEEEE" points="279.5,345.8798,352.5,345.8798,352.5,351.8798,342.5,361.8798,279.5,361.8798,279.5,345.8798" style="stroke: #000000; stroke-width: 2.0;"/><text fill="#000000" font-family="Migu 1M" font-size="13" font-weight="bold" lengthAdjust="spacingAndGlyphs" textLength="28" x="294.5" y="358.3198">loop</text><text fill="#000000" font-family="Migu 1M" font-size="11" font-weight="bold" lengthAdjust="spacingAndGlyphs" textLength="74" x="367.5" y="357.5597">[1, データ数]</text><line style="stroke: #A80036; stroke-width: 1.0;" x1="324.5" x2="366.5" y1="382.7398" y2="382.7398"/><line style="stroke: #A80036; stroke-width: 1.0;" x1="366.5" x2="366.5" y1="382.7398" y2="395.7398"/><line style="stroke: #A80036; stroke-width: 1.0;" x1="325.5" x2="366.5" y1="395.7398" y2="395.7398"/><polygon fill="#A80036" points="335.5,391.7398,325.5,395.7398,335.5,399.7398,331.5,395.7398" style="stroke: #A80036; stroke-width: 1.0;"/><text fill="#000000" font-family="Migu 1M" font-size="13" lengthAdjust="spacingAndGlyphs" textLength="78" x="331.5" y="377.7498">データの表示</text><polygon fill="#A80036" points="50,412.7398,40,416.7398,50,420.7398,46,416.7398" style="stroke: #A80036; stroke-width: 1.0;"/><line style="stroke: #A80036; stroke-width: 1.0; stroke-dasharray: 2.0,2.0;" x1="44" x2="318.5" y1="416.7398" y2="416.7398"/></g></svg>