<?xml version="1.0" encoding="UTF-8" standalone="no"?><svg xmlns="http://www.w3.org/2000/svg" xmlns:xlink="http://www.w3.org/1999/xlink" contentScriptType="application/ecmascript" contentStyleType="text/css" height="197px" preserveAspectRatio="none" style="width:212px;height:197px;" version="1.1" viewBox="0 0 212 197" width="212px" zoomAndPan="magnify"><defs><filter height="300%" id="fm8v5s0" width="300%" x="-1" y="-1"><feGaussianBlur result="blurOut" stdDeviation="2.0"/><feColorMatrix in="blurOut" result="blurOut2" type="matrix" values="0 0 0 0 0 0 0 0 0 0 0 0 0 0 0 0 0 0 .4 0"/><feOffset dx="4.0" dy="4.0" in="blurOut2" result="blurOut3"/><feBlend in="SourceGraphic" in2="blurOut3" mode="normal"/></filter></defs><g><!--class クラスAプ--><rect fill="#FEFECE" filter="url(#fm8v5s0)" height="60.2099" style="stroke: #A80036; stroke-width: 1.5;" width="88" x="64" y="8"/><ellipse cx="79.9" cy="24" fill="#ADD1B2" rx="11" ry="11" style="stroke: #A80036; stroke-width: 1.0;"/><path d="M82.1656,29.3594 Q81.1344,30.0781 79.7594,30.0781 Q78.3844,30.0781 77.3531,29.3594 Q75.5719,27.5781 75.5719,23.9063 Q75.5719,19.6563 77.4469,17.75 Q78.4938,16.7344 79.8219,16.7344 Q81.2281,16.7344 82.0719,17.5469 Q83.5563,19.0625 83.4781,21.9375 L81.3531,21.9375 Q81.275,19.6094 80.6344,18.9688 Q80.3531,18.6719 79.8219,18.6719 Q79.3688,18.6719 79.0094,19.0469 Q77.775,20.2656 77.775,23.7813 Q77.775,26.8281 78.8219,27.8438 Q79.2438,28.2813 79.7594,28.2813 Q80.2125,28.2813 80.65,27.8438 Q81.2125,27.2969 81.2906,24.7031 L83.5875,24.7031 L83.3375,28.1875 Z "/><text fill="#000000" font-family="Migu 1M" font-size="12" lengthAdjust="spacingAndGlyphs" textLength="54" x="94.1" y="27.9">クラスAプ</text><line style="stroke: #A80036; stroke-width: 1.5;" x1="65" x2="151" y1="40" y2="40"/><line style="stroke: #A80036; stroke-width: 1.5;" x1="65" x2="151" y1="48" y2="48"/><ellipse cx="75" cy="59.605" fill="#84BE84" rx="3" ry="3" style="stroke: #038048; stroke-width: 1.0;"/><text fill="#000000" font-family="Migu 1M" font-size="11" lengthAdjust="spacingAndGlyphs" textLength="62" x="84" y="61.6799">メソッド1()</text><!--class クラスBプ--><rect fill="#FEFECE" filter="url(#fm8v5s0)" height="60.2099" style="stroke: #A80036; stroke-width: 1.5;" width="88" x="6" y="128"/><ellipse cx="21.9" cy="144" fill="#ADD1B2" rx="11" ry="11" style="stroke: #A80036; stroke-width: 1.0;"/><path d="M24.1656,149.3594 Q23.1344,150.0781 21.7594,150.0781 Q20.3844,150.0781 19.3531,149.3594 Q17.5719,147.5781 17.5719,143.9063 Q17.5719,139.6563 19.4469,137.75 Q20.4938,136.7344 21.8219,136.7344 Q23.2281,136.7344 24.0719,137.5469 Q25.5563,139.0625 25.4781,141.9375 L23.3531,141.9375 Q23.275,139.6094 22.6344,138.9688 Q22.3531,138.6719 21.8219,138.6719 Q21.3688,138.6719 21.0094,139.0469 Q19.775,140.2656 19.775,143.7813 Q19.775,146.8281 20.8219,147.8438 Q21.2438,148.2813 21.7594,148.2813 Q22.2125,148.2813 22.65,147.8438 Q23.2125,147.2969 23.2906,144.7031 L25.5875,144.7031 L25.3375,148.1875 Z "/><text fill="#000000" font-family="Migu 1M" font-size="12" lengthAdjust="spacingAndGlyphs" textLength="54" x="36.1" y="147.9">クラスBプ</text><line style="stroke: #A80036; stroke-width: 1.5;" x1="7" x2="93" y1="160" y2="160"/><line style="stroke: #A80036; stroke-width: 1.5;" x1="7" x2="93" y1="168" y2="168"/><ellipse cx="17" cy="179.605" fill="#84BE84" rx="3" ry="3" style="stroke: #038048; stroke-width: 1.0;"/><text fill="#000000" font-family="Migu 1M" font-size="11" lengthAdjust="spacingAndGlyphs" textLength="62" x="26" y="181.6799">メソッド2()</text><!--class クラスC--><rect fill="#FEFECE" filter="url(#fm8v5s0)" height="48" style="stroke: #A80036; stroke-width: 1.5;" width="74" x="129" y="134"/><ellipse cx="144" cy="150" fill="#ADD1B2" rx="11" ry="11" style="stroke: #A80036; stroke-width: 1.0;"/><path d="M146.2656,155.3594 Q145.2344,156.0781 143.8594,156.0781 Q142.4844,156.0781 141.4531,155.3594 Q139.6719,153.5781 139.6719,149.9063 Q139.6719,145.6563 141.5469,143.75 Q142.5938,142.7344 143.9219,142.7344 Q145.3281,142.7344 146.1719,143.5469 Q147.6563,145.0625 147.5781,147.9375 L145.4531,147.9375 Q145.375,145.6094 144.7344,144.9688 Q144.4531,144.6719 143.9219,144.6719 Q143.4688,144.6719 143.1094,145.0469 Q141.875,146.2656 141.875,149.7813 Q141.875,152.8281 142.9219,153.8438 Q143.3438,154.2813 143.8594,154.2813 Q144.3125,154.2813 144.75,153.8438 Q145.3125,153.2969 145.3906,150.7031 L147.6875,150.7031 L147.4375,154.1875 Z "/><text fill="#000000" font-family="Migu 1M" font-size="12" lengthAdjust="spacingAndGlyphs" textLength="42" x="158" y="153.9">クラスC</text><line style="stroke: #A80036; stroke-width: 1.5;" x1="130" x2="202" y1="166" y2="166"/><line style="stroke: #A80036; stroke-width: 1.5;" x1="130" x2="202" y1="174" y2="174"/><path d="M93.6629,68.169 C84.7397,86.323 73.3031,109.5902 64.3732,127.758 " fill="none" style="stroke: #A80036; stroke-width: 1.0;"/><path d="M131.169,86.138 C139.208,102.4924 147.87,120.1155 154.545,133.6958 " fill="none" style="stroke: #A80036; stroke-width: 1.0;"/><polygon fill="none" points="124.877,89.2054,122.337,68.169,137.442,83.03,124.877,89.2054" style="stroke: #A80036; stroke-width: 1.0;"/></g></svg>